***
Start download at 20240505-033826
2024-05-05T03:38:37.671Z get-attribute args url=https://m.twitch.tv/gigaohmbiological selector=a[href^="/videos"] attribute=href useProp=true timeout=10000 launchargs={"headless":true,"args":["--no-sandbox","--disable-setuid-sandbox"]}
2024-05-05T03:38:37.937Z get-attribute launched successfully
2024-05-05T03:38:38.600Z get-attribute navigated to url successfully
2024-05-05T03:38:38.691Z get-attribute waited for selector successfully
2024-05-05T03:38:38.696Z get-attribute got attribute value https://m.twitch.tv/videos/2137113100
npm notice 
npm notice New minor version of npm available! 10.5.1 -> 10.7.0
npm notice Changelog: <https://github.com/npm/cli/releases/tag/v10.7.0>
npm notice Run `npm install -g npm@10.7.0` to update!
npm notice 
Looking up video...
Fetching access token...
Fetching playlists...
Fetching playlist...
Joining files...
size=       0kB time=00:00:00.00 bitrate=N/A speed=N/A    size=   75776kB time=01:00:57.70 bitrate= 169.7kbits/s speed=7.31e+03x    size=  152320kB time=02:02:11.54 bitrate= 170.2kbits/s speed=7.33e+03x    size=  226491kB time=03:00:15.16 bitrate= 171.6kbits/s speed=7.24e+03x    
Deleting temporary files...
the_no_virus_response_2023_study_hall_4_may_2024_gigaohm_biological_high_resistance_low_noise_information_brief.m4a
DOWNLOAD_OK
